<?xml version="1.0" standalone="no"?>
<!DOCTYPE svg PUBLIC "-//W3C//DTD SVG 20010904//EN"
 "http://www.w3.org/TR/2001/REC-SVG-20010904/DTD/svg10.dtd">
<svg xmlns="http://www.w3.org/2000/svg" width="300.000000pt" height="225.000000pt" preserveAspectRatio="xMidYMid meet" version="1.0" viewBox="0 0 300.000000 225.000000">
    <metadata>
        Created by potrace 1.10, written by Peter Selinger 2001-2011
    </metadata>
    <g fill="#000000" stroke="none" transform="translate(0.000000,225.000000) scale(0.100000,-0.100000)">
        <path d="M1340 2085 c-7 -8 -9 -15 -4 -16 5 0 0 -4 -11 -8 -11 -5 -24 -5 -30
-1 -12 9 -131 30 -171 30 -61 0 -98 -19 -129 -65 -16 -24 -31 -42 -34 -40 -7
7 -44 -17 -81 -51 -19 -18 -52 -49 -73 -68 l-39 -36 5 -97 c3 -85 1 -103 -16
-135 -25 -46 -33 -47 -42 -8 -7 32 15 80 37 80 6 0 9 3 6 6 -3 3 -15 -1 -27
-8 -25 -15 -35 -61 -23 -103 5 -16 5 -44 1 -62 -4 -21 -3 -34 5 -37 6 -2 -1
-14 -17 -28 -32 -27 -53 -86 -33 -94 10 -4 9 -13 -5 -42 -11 -20 -19 -46 -19
-57 0 -12 -11 -32 -25 -45 -33 -31 -36 -99 -5 -107 29 -8 26 -54 -5 -83 -21
-20 -25 -32 -25 -83 0 -55 -2 -61 -40 -99 -31 -32 -37 -44 -30 -59 6 -10 10
-37 11 -61 0 -24 4 -52 8 -63 7 -16 1 -23 -31 -37 -41 -18 -60 -50 -73 -119
-8 -43 15 -75 43 -60 9 5 26 5 36 2 23 -9 31 -41 10 -41 -8 0 -14 -4 -14 -10
0 -5 7 -10 16 -10 8 0 33 -10 54 -22 33 -20 43 -21 69 -11 33 12 43 -1 19 -25
-6 -6 -11 -32 -12 -57 -1 -35 4 -50 18 -61 26 -18 62 -18 70 1 7 19 32 20 39
1 3 -7 21 -16 40 -20 32 -6 35 -10 42 -51 3 -25 10 -43 15 -40 5 3 7 12 3 21
-3 9 9 29 31 51 46 47 52 71 32 132 -9 28 -16 56 -16 64 0 22 37 50 59 44 14
-3 20 2 24 21 3 15 -1 32 -9 39 -8 8 -14 20 -14 26 1 25 40 97 52 97 10 0 15
19 16 66 2 37 4 69 5 73 1 3 -17 31 -39 61 -87 117 -113 174 -127 275 l-4 30
100 0 c97 0 100 1 120 27 11 15 27 49 36 75 9 27 22 48 30 48 8 0 27 -25 43
-55 15 -30 36 -61 47 -68 11 -8 51 -13 100 -14 65 0 88 4 117 21 l36 22 -6
-62 c-3 -33 -10 -67 -17 -75 -6 -8 -8 -25 -5 -38 14 -55 -56 -206 -102 -220
-9 -3 -26 -22 -37 -42 -16 -30 -17 -37 -4 -45 18 -11 29 -11 29 1 0 5 6 7 13
4 48 -18 78 -244 33 -244 -7 0 -19 -6 -25 -14 -9 -11 -6 -17 15 -31 17 -11 24
-12 18 -4 -6 12 -5 12 8 1 9 -7 27 -10 46 -6 24 5 33 2 38 -10 3 -9 12 -16 20
-16 8 0 14 -7 14 -15 0 -8 5 -15 11 -15 6 0 9 -14 6 -37 -5 -35 9 -63 32 -63
5 0 12 -8 14 -17 4 -15 6 -15 12 4 4 13 10 23 14 23 20 -1 51 -48 61 -95 7
-38 52 -48 69 -16 6 11 17 26 25 34 13 12 13 26 4 82 -10 60 -9 71 7 102 11
19 32 41 47 49 25 13 31 13 51 -1 13 -8 35 -13 48 -11 13 3 27 5 32 5 26 3
-26 71 -54 71 -9 1 -8 4 4 11 9 6 15 14 12 19 -3 4 2 11 11 14 19 7 67 -40 91
-92 9 -19 27 -38 41 -43 33 -13 74 -8 80 10 3 9 -2 11 -17 6 -24 -7 -26 2 -9
40 8 18 9 29 1 33 -6 4 -14 18 -18 32 -10 33 -89 110 -112 110 -19 0 -60 39
-55 53 1 4 -5 7 -13 7 -24 0 -18 13 22 46 36 30 36 32 23 63 -7 18 -25 37 -41
44 -22 9 -26 15 -19 27 9 13 11 13 20 0 8 -12 10 -9 10 14 0 24 -2 26 -15 16
-25 -21 -35 -2 -18 37 24 59 13 117 -32 163 -25 25 -36 44 -32 55 6 14 9 14
31 0 14 -9 33 -15 43 -13 13 2 9 9 -20 25 -39 24 -43 33 -27 63 9 17 12 17 39
-11 20 -19 39 -29 58 -28 l28 1 -32 9 c-40 12 -44 18 -34 55 5 19 13 28 24 26
10 -2 17 3 17 10 0 8 5 6 11 -4 5 -10 15 -18 20 -18 6 0 3 7 -5 16 -9 8 -16
22 -16 30 0 17 36 19 43 2 3 -7 6 -4 6 7 1 28 -10 42 -42 54 -15 6 -27 16 -27
22 0 6 7 9 15 5 8 -3 15 -1 15 4 0 6 -6 10 -14 10 -10 0 -17 16 -22 47 -6 40
-8 44 -15 25 -10 -26 -24 -29 -33 -6 -9 23 -8 27 8 21 10 -4 13 -1 9 9 -6 16
-33 19 -33 4 0 -5 -4 -10 -10 -10 -21 0 -9 18 18 28 25 8 29 15 28 45 -2 36
-23 69 -64 96 -22 15 -73 79 -53 67 6 -4 11 -1 11 7 0 10 8 13 25 9 14 -2 22
-9 18 -15 -4 -7 0 -8 13 -3 10 5 31 12 46 18 19 7 25 15 23 29 -7 36 -15 39
-72 32 -50 -5 -56 -4 -50 10 5 13 0 17 -22 17 -16 0 -34 7 -41 15 -16 19 -20
68 -6 77 7 5 5 8 -5 8 -9 0 -22 6 -28 14 -6 7 -26 13 -44 13 -43 0 -67 11 -68
32 0 13 -2 13 -8 -2 -6 -17 -8 -16 -20 6 -12 23 -26 32 -91 61 -14 6 -36 18
-49 28 -26 20 -46 24 -36 8 12 -19 -12 -10 -39 15 -32 29 -30 29 -46 10z m410
-206 c15 -28 5 -23 -15 7 -9 15 -12 23 -6 20 6 -4 16 -16 21 -27z m8 -55 c-10
-10 -28 6 -28 24 0 15 1 15 17 -1 9 -9 14 -19 11 -23z m69 -41 c-4 -3 -10 -3
-14 0 -3 4 0 7 7 7 7 0 10 -3 7 -7z m3 -65 c0 -13 -23 -5 -28 10 -2 7 2 10 12
6 9 -3 16 -11 16 -16z m-585 -134 c11 -11 19 -13 28 -6 17 14 93 -58 126 -117
26 -49 43 -101 33 -101 -51 -2 -158 -26 -203 -46 l-57 -26 -73 21 c-41 11 -98
21 -126 22 -41 2 -54 6 -58 20 -4 11 -3 24 1 30 4 7 7 26 6 42 0 17 8 43 19
58 10 15 19 31 19 36 0 24 45 47 108 56 106 14 113 15 120 21 11 11 41 6 57
-10z m663 -15 c-2 -6 -8 -10 -13 -10 -5 0 -11 4 -13 10 -2 6 4 11 13 11 9 0
15 -5 13 -11z m-1198 -169 c-24 -16 -31 -11 -19 11 8 16 14 18 22 10 9 -9 8
-14 -3 -21z m1256 -27 c-10 -10 -19 5 -10 18 6 11 8 11 12 0 2 -7 1 -15 -2
-18z m-498 -71 c12 -7 22 -18 22 -25 0 -7 -4 -6 -10 3 -8 12 -10 12 -11 -5 -1
-17 -2 -16 -9 5 l-8 25 -7 -23 c-6 -17 -12 -21 -28 -16 -17 5 -19 3 -13 -20 4
-15 2 -26 -4 -26 -5 0 -10 -9 -10 -21 0 -12 -4 -17 -11 -13 -6 3 -9 17 -6 30
2 14 0 27 -4 30 -10 6 -12 57 -3 66 10 10 78 3 102 -10z m425 2 c9 -4 17 -13
17 -20 0 -21 -38 -17 -50 5 -13 26 -13 34 3 27 6 -3 20 -9 30 -12z m132 7 c10
-17 -12 -21 -25 -6 -10 12 -10 15 3 15 9 0 18 -4 22 -9z m-675 -9 c0 -5 -7 -9
-15 -9 -8 0 -15 4 -15 9 0 4 7 8 15 8 8 0 15 -4 15 -8z m-342 -51 c-1 -25 1
-58 6 -74 7 -23 6 -26 -9 -21 -11 5 -15 15 -12 30 5 30 -7 31 -26 3 -19 -26
-27 -14 -34 56 l-6 54 41 -1 42 0 -2 -47z m278 -16 c1 -48 -2 -65 -11 -65 -9
0 -12 9 -9 24 3 20 1 23 -15 19 -10 -3 -22 0 -25 5 -8 13 11 64 27 74 26 16
32 6 33 -57z m251 58 c-4 -3 -10 -3 -14 0 -3 4 0 7 7 7 7 0 10 -3 7 -7z m-433
-20 c11 -11 30 -10 38 2 5 6 8 3 8 -6 0 -9 -6 -19 -14 -22 -8 -3 -17 -19 -21
-36 -7 -34 -25 -33 -24 2 0 12 -2 32 -6 45 -7 21 4 30 19 15z m-277 -10 c-4
-3 -10 -3 -14 0 -3 4 0 7 7 7 7 0 10 -3 7 -7z m70 0 c-4 -3 -10 -3 -14 0 -3 4
0 7 7 7 7 0 10 -3 7 -7z m-284 -306 c-6 -39 -23 -51 -23 -16 0 21 19 64 26 57
2 -2 1 -21 -3 -41z m-86 -174 c-4 -3 -7 0 -7 7 0 7 3 10 7 7 3 -4 3 -10 0 -14z
m-32 -213 c-10 -11 -20 -18 -23 -15 -7 6 18 35 31 35 5 0 2 -9 -8 -20z m95
-25 c0 -8 -2 -15 -4 -15 -2 0 -6 7 -10 15 -3 8 -1 15 4 15 6 0 10 -7 10 -15z
m-27 -21 c-4 -10 -9 -12 -15 -6 -12 12 -1 35 12 27 5 -3 6 -13 3 -21z m1539
-50 c9 -18 9 -27 0 -36 -9 -9 -12 -7 -12 9 0 11 -10 33 -22 48 l-21 28 22 -12
c12 -7 27 -23 33 -37z m-1647 -14 c3 -5 4 -10 1 -10 -3 0 -8 5 -11 10 -3 6 -4
10 -1 10 3 0 8 -4 11 -10z m1346 -73 c-10 -26 -29 -43 -38 -34 -3 3 5 20 17
37 25 36 35 34 21 -3z"/>
        <path d="M1700 2000 c8 -5 20 -10 25 -10 6 0 3 5 -5 10 -8 5 -19 10 -25 10 -5
0 -3 -5 5 -10z"/>
        <path d="M1750 1930 c20 -13 33 -13 25 0 -3 6 -14 10 -23 10 -15 0 -15 -2 -2
-10z"/>
        <path d="M1216 1072 c-9 -15 17 -31 58 -36 37 -5 37 -4 23 17 -15 23 -70 36
-81 19z"/>
        <path d="M1093 1055 c-9 -25 4 -29 17 -6 7 15 7 21 0 21 -6 0 -13 -7 -17 -15z"/>
        <path d="M1205 990 c-8 -13 15 -13 35 0 12 8 11 10 -7 10 -12 0 -25 -4 -28
-10z"/>
        <path d="M995 960 c-3 -5 1 -10 9 -10 9 0 16 5 16 10 0 6 -4 10 -9 10 -6 0
-13 -4 -16 -10z"/>
        <path d="M1040 925 c0 -9 8 -18 18 -22 9 -3 27 -15 40 -27 15 -13 25 -17 30
-10 4 6 31 14 60 18 43 6 52 4 52 -9 0 -13 7 -12 41 7 23 13 50 27 60 33 27
14 24 29 -3 20 -134 -42 -205 -46 -256 -15 -39 24 -42 24 -42 5z"/>
        <path d="M1390 630 c0 -7 3 -10 7 -7 3 4 3 10 0 14 -4 3 -7 0 -7 -7z"/>
        <path d="M870 60 c0 -7 3 -10 7 -7 3 4 3 10 0 14 -4 3 -7 0 -7 -7z"/>
        <path d="M881 24 c0 -11 3 -14 6 -6 3 7 2 16 -1 19 -3 4 -6 -2 -5 -13z"/>
    </g>
</svg>
